<svg width="89" height="98" viewBox="0 0 89 98" fill="none" xmlns="http://www.w3.org/2000/svg">
<path d="M25.5833 95.5417L13.25 85.7083L25.5833 75.875" stroke="white" stroke-width="2" stroke-linecap="round" stroke-linejoin="round"/>
<path d="M68.75 70.9583V75.8749C68.75 78.4829 67.4506 80.984 65.1376 82.8281C62.8247 84.6722 59.6877 85.7083 56.4167 85.7083H13.25" stroke="white" stroke-width="2" stroke-linecap="round" stroke-linejoin="round"/>
<path d="M56.1667 1L68.5 10.8333L56.1667 20.6667" stroke="white" stroke-width="2" stroke-linecap="round" stroke-linejoin="round"/>
<path d="M13 25.5833V20.6666C13 18.0586 14.2994 15.5575 16.6123 13.7134C18.9253 11.8693 22.0623 10.8333 25.3333 10.8333H68.5" stroke="white" stroke-width="2" stroke-linecap="round" stroke-linejoin="round"/>
<path d="M15.1348 51.1973C15.1348 50.2949 14.8125 49.5918 14.168 49.0879C13.5352 48.584 12.416 48.0625 10.8105 47.5234C9.20508 46.9844 7.89258 46.4629 6.87305 45.959C3.55664 44.3301 1.89844 42.0918 1.89844 39.2441C1.89844 37.8262 2.30859 36.5781 3.12891 35.5C3.96094 34.4102 5.13281 33.5664 6.64453 32.9688C8.15625 32.3594 9.85547 32.0547 11.7422 32.0547C13.582 32.0547 15.2285 32.3828 16.6816 33.0391C18.1465 33.6953 19.2832 34.6328 20.0918 35.8516C20.9004 37.0586 21.3047 38.4414 21.3047 40H15.1523C15.1523 38.957 14.8301 38.1484 14.1855 37.5742C13.5527 37 12.6914 36.7129 11.6016 36.7129C10.5 36.7129 9.62695 36.959 8.98242 37.4512C8.34961 37.9316 8.0332 38.5469 8.0332 39.2969C8.0332 39.9531 8.38477 40.5508 9.08789 41.0898C9.79102 41.6172 11.0273 42.168 12.7969 42.7422C14.5664 43.3047 16.0195 43.9141 17.1562 44.5703C19.9219 46.1641 21.3047 48.3613 21.3047 51.1621C21.3047 53.4004 20.4609 55.1582 18.7734 56.4355C17.0859 57.7129 14.7715 58.3516 11.8301 58.3516C9.75586 58.3516 7.875 57.9824 6.1875 57.2441C4.51172 56.4941 3.24609 55.4746 2.39062 54.1855C1.54688 52.8848 1.125 51.3906 1.125 49.7031H7.3125C7.3125 51.0742 7.66406 52.0879 8.36719 52.7441C9.08203 53.3887 10.2363 53.7109 11.8301 53.7109C12.8496 53.7109 13.6523 53.4941 14.2383 53.0605C14.8359 52.6152 15.1348 51.9941 15.1348 51.1973ZM40.623 50.1953L42.5391 38.9805H48.2168L43.7344 58H38.7246L35.5781 46.7148L32.4141 58H27.4043L22.9219 38.9805H28.5996L30.4805 50.459L33.5039 38.9805H37.6348L40.623 50.1953ZM61.0664 58C60.8555 57.6133 60.668 57.0449 60.5039 56.2949C59.4141 57.666 57.8906 58.3516 55.9336 58.3516C54.1406 58.3516 52.6172 57.8125 51.3633 56.7344C50.1094 55.6445 49.4824 54.2793 49.4824 52.6387C49.4824 50.5762 50.2441 49.0176 51.7676 47.9629C53.291 46.9082 55.5059 46.3809 58.4121 46.3809H60.2402V45.3789C60.2402 43.6328 59.4844 42.7598 57.9727 42.7598C56.5664 42.7598 55.8633 43.4512 55.8633 44.834H49.9395C49.9395 42.9941 50.7188 41.5 52.2773 40.3516C53.8477 39.2031 55.8457 38.6289 58.2715 38.6289C60.6973 38.6289 62.6133 39.2207 64.0195 40.4043C65.4258 41.5879 66.1465 43.2109 66.1816 45.2734V53.6934C66.2051 55.4395 66.4746 56.7754 66.9902 57.7012V58H61.0664ZM57.3574 54.1328C58.0957 54.1328 58.7051 53.9746 59.1855 53.6582C59.6777 53.3418 60.0293 52.9844 60.2402 52.5859V49.5449H58.5176C56.4551 49.5449 55.4238 50.4707 55.4238 52.3223C55.4238 52.8613 55.6055 53.3008 55.9688 53.6406C56.332 53.9688 56.7949 54.1328 57.3574 54.1328ZM87.1348 48.6309C87.1348 51.584 86.4668 53.9453 85.1309 55.7148C83.8066 57.4727 82.0137 58.3516 79.752 58.3516C78.0059 58.3516 76.5703 57.7129 75.4453 56.4355V65.3125H69.5215V38.9805H75.0586L75.2344 40.7383C76.3711 39.332 77.8652 38.6289 79.7168 38.6289C82.0605 38.6289 83.8828 39.4961 85.1836 41.2305C86.4844 42.9531 87.1348 45.3262 87.1348 48.3496V48.6309ZM81.2109 48.2617C81.2109 44.8867 80.2266 43.1992 78.2578 43.1992C76.8516 43.1992 75.9141 43.7031 75.4453 44.7109V52.1992C75.9609 53.2539 76.9102 53.7812 78.293 53.7812C80.1797 53.7812 81.1523 52.1523 81.2109 48.8945V48.2617Z" fill="white"/>
</svg>
