<svg width="20" height="19" viewBox="0 0 20 19" fill="none" xmlns="http://www.w3.org/2000/svg">
<path d="M18.0349 2.89553C17.9274 1.50834 16.7651 0.412262 15.3509 0.412262H2.75111C1.26618 0.412262 0.0581055 1.62034 0.0581055 3.10527V15.5652C0.0581055 17.0501 1.26618 18.2582 2.75111 18.2582H17.307C18.7919 18.2582 20 17.0501 20 15.5652V5.48774C20 4.25509 19.1672 3.21397 18.0349 2.89553ZM2.75111 1.67031H15.3509C16.0355 1.67031 16.6093 2.15234 16.7516 2.79477H2.75111C2.22387 2.79477 1.73194 2.94766 1.31615 3.21059V3.10527C1.31615 2.31404 1.95988 1.67031 2.75111 1.67031ZM17.307 17.0002H2.75111C1.95988 17.0002 1.31615 16.3564 1.31615 15.5652V5.48774C1.31615 4.6965 1.95988 4.05278 2.75111 4.05278H17.307C18.0982 4.05278 18.742 4.6965 18.742 5.48774V7.68295H14.7309C13.1414 7.68295 11.8483 8.9761 11.8483 10.5656C11.8483 12.155 13.1415 13.4482 14.7309 13.4482H18.7419V15.5652C18.7419 16.3564 18.0982 17.0002 17.307 17.0002ZM18.7419 12.1901H14.7309C13.8351 12.1901 13.1064 11.4614 13.1064 10.5656C13.1064 9.66976 13.8351 8.941 14.7309 8.941H18.7419V12.1901Z" fill="#FFF0F0"/>
</svg>
